<svg width="44" height="41" viewBox="0 0 44 41" fill="none" xmlns="http://www.w3.org/2000/svg">
<g filter="url(#filter0_d_58_11)">
<path fill-rule="evenodd" clip-rule="evenodd" d="M4.5 20.5C4.5 20.1685 4.6317 19.8505 4.86612 19.6161C5.10054 19.3817 5.41848 19.25 5.75 19.25H35.2325L27.365 11.385C27.1303 11.1503 26.9984 10.8319 26.9984 10.5C26.9984 10.1681 27.1303 9.84971 27.365 9.61499C27.5997 9.38028 27.9181 9.24841 28.25 9.24841C28.5819 9.24841 28.9003 9.38028 29.135 9.61499L39.135 19.615C39.2514 19.7311 39.3438 19.869 39.4068 20.0209C39.4698 20.1728 39.5022 20.3356 39.5022 20.5C39.5022 20.6644 39.4698 20.8272 39.4068 20.9791C39.3438 21.1309 39.2514 21.2689 39.135 21.385L29.135 31.385C28.9003 31.6197 28.5819 31.7516 28.25 31.7516C27.9181 31.7516 27.5997 31.6197 27.365 31.385C27.1303 31.1503 26.9984 30.8319 26.9984 30.5C26.9984 30.1681 27.1303 29.8497 27.365 29.615L35.2325 21.75H5.75C5.41848 21.75 5.10054 21.6183 4.86612 21.3839C4.6317 21.1495 4.5 20.8315 4.5 20.5Z" fill="white"/>
</g>
<defs>
<filter id="filter0_d_58_11" x="0.5" y="9.24841" width="43.0022" height="30.5032" filterUnits="userSpaceOnUse" color-interpolation-filters="sRGB">
<feFlood flood-opacity="0" result="BackgroundImageFix"/>
<feColorMatrix in="SourceAlpha" type="matrix" values="0 0 0 0 0 0 0 0 0 0 0 0 0 0 0 0 0 0 127 0" result="hardAlpha"/>
<feOffset dy="4"/>
<feGaussianBlur stdDeviation="2"/>
<feComposite in2="hardAlpha" operator="out"/>
<feColorMatrix type="matrix" values="0 0 0 0 0 0 0 0 0 0 0 0 0 0 0 0 0 0 0.25 0"/>
<feBlend mode="normal" in2="BackgroundImageFix" result="effect1_dropShadow_58_11"/>
<feBlend mode="normal" in="SourceGraphic" in2="effect1_dropShadow_58_11" result="shape"/>
</filter>
</defs>
</svg>
