<svg width="0" height="0" class="hidden">
  <symbol fill="none" xmlns="http://www.w3.org/2000/svg" viewBox="0 0 33 28" id="youtube">
    <path d="M24.8944 2.60889H8.06742C4.96967 2.60889 2.45844 5.12012 2.45844 8.21788V19.4359C2.45844 22.5336 4.96967 25.0449 8.06742 25.0449H24.8944C27.9922 25.0449 30.5034 22.5336 30.5034 19.4359V8.21788C30.5034 5.12012 27.9922 2.60889 24.8944 2.60889Z" stroke="#F8F8F8" stroke-width="4.16667" stroke-linecap="round" stroke-linejoin="round"></path>
    <path d="M20.6876 13.8269L13.6764 9.62012V18.0336L20.6876 13.8269Z" stroke="#F8F8F8" stroke-width="4.16667" stroke-linecap="round" stroke-linejoin="round"></path>
  </symbol>
  <symbol fill="none" xmlns="http://www.w3.org/2000/svg" viewBox="0 0 32 32" id="instagram">
    <path fill-rule="evenodd" clip-rule="evenodd" d="M9.46779 0.494892C11.1126 0.419171 11.6371 0.402344 15.827 0.402344C20.0169 0.402344 20.5413 0.420573 22.1848 0.494892C23.8282 0.569211 24.95 0.831432 25.9316 1.21144C26.9594 1.59986 27.8919 2.20704 28.6632 2.9923C29.4484 3.76213 30.0542 4.69322 30.4412 5.72247C30.8226 6.70405 31.0834 7.82584 31.1592 9.46647C31.2349 11.1141 31.2517 11.6386 31.2517 15.8271C31.2517 20.017 31.2335 20.5414 31.1592 22.1863C31.0848 23.8269 30.8226 24.9487 30.4412 25.9303C30.0542 26.9596 29.4474 27.8923 28.6632 28.6632C27.8919 29.4485 26.9594 30.0543 25.9316 30.4413C24.95 30.8227 23.8282 31.0835 22.1876 31.1592C20.5413 31.235 20.0169 31.2518 15.827 31.2518C11.6371 31.2518 11.1126 31.2336 9.46779 31.1592C7.82716 31.0849 6.70536 30.8227 5.72378 30.4413C4.69442 30.0542 3.76179 29.4475 2.9908 28.6632C2.20608 27.893 1.59881 26.9608 1.21135 25.9317C0.83134 24.9501 0.570522 23.8283 0.494801 22.1877C0.419079 20.54 0.402252 20.0156 0.402252 15.8271C0.402252 11.6372 0.420481 11.1127 0.494801 9.46928C0.56912 7.82584 0.83134 6.70405 1.21135 5.72247C1.59938 4.69334 2.20711 3.76117 2.9922 2.99089C3.76209 2.20634 4.69379 1.59908 5.72238 1.21144C6.70395 0.831432 7.82575 0.570613 9.46638 0.494892H9.46779ZM22.06 3.27134C20.4334 3.19702 19.9454 3.1816 15.827 3.1816C11.7086 3.1816 11.2206 3.19702 9.59399 3.27134C8.08938 3.34005 7.27327 3.59106 6.72919 3.80279C6.00984 4.08324 5.49522 4.41558 4.95535 4.95544C4.44359 5.45331 4.04975 6.05941 3.8027 6.72929C3.59096 7.27336 3.33996 8.08947 3.27125 9.59408C3.19693 11.2207 3.18151 11.7087 3.18151 15.8271C3.18151 19.9455 3.19693 20.4335 3.27125 22.0601C3.33996 23.5647 3.59096 24.3808 3.8027 24.9249C4.0495 25.5937 4.44353 26.2009 4.95535 26.6987C5.45315 27.2105 6.06032 27.6046 6.72919 27.8513C7.27327 28.0631 8.08938 28.3141 9.59399 28.3828C11.2206 28.4571 11.7072 28.4725 15.827 28.4725C19.9468 28.4725 20.4334 28.4571 22.06 28.3828C23.5646 28.3141 24.3807 28.0631 24.9248 27.8513C25.6441 27.5709 26.1587 27.2386 26.6986 26.6987C27.2104 26.2009 27.6045 25.5937 27.8513 24.9249C28.063 24.3808 28.314 23.5647 28.3827 22.0601C28.457 20.4335 28.4725 19.9455 28.4725 15.8271C28.4725 11.7087 28.457 11.2207 28.3827 9.59408C28.314 8.08947 28.063 7.27336 27.8513 6.72929C27.5708 6.00993 27.2385 5.49531 26.6986 4.95544C26.2007 4.44372 25.5946 4.04989 24.9248 3.80279C24.3807 3.59106 23.5646 3.34005 22.06 3.27134V3.27134ZM13.8568 20.5821C14.9571 21.0401 16.1823 21.1019 17.3231 20.757C18.4639 20.412 19.4495 19.6817 20.1117 18.6908C20.7739 17.6999 21.0715 16.5098 20.9537 15.3238C20.8359 14.1378 20.31 13.0295 19.4658 12.1882C18.9277 11.6504 18.277 11.2387 17.5606 10.9825C16.8442 10.7264 16.08 10.6322 15.3229 10.7069C14.5657 10.7816 13.8346 11.0232 13.1821 11.4144C12.5295 11.8055 11.9718 12.3365 11.5491 12.9691C11.1264 13.6016 10.8493 14.3201 10.7375 15.0726C10.6258 15.8252 10.6823 16.5931 10.903 17.3212C11.1237 18.0493 11.5031 18.7194 12.0139 19.2832C12.5246 19.8471 13.154 20.2907 13.8568 20.5821ZM10.2208 10.2209C10.957 9.48467 11.831 8.90067 12.7929 8.50223C13.7548 8.1038 14.7858 7.89872 15.827 7.89872C16.8681 7.89872 17.8991 8.1038 18.861 8.50223C19.8229 8.90067 20.697 9.48467 21.4332 10.2209C22.1694 10.9571 22.7534 11.8311 23.1518 12.793C23.5503 13.7549 23.7553 14.7859 23.7553 15.8271C23.7553 16.8682 23.5503 17.8992 23.1518 18.8611C22.7534 19.823 22.1694 20.697 21.4332 21.4333C19.9463 22.9201 17.9297 23.7554 15.827 23.7554C13.7243 23.7554 11.7076 22.9201 10.2208 21.4333C8.73394 19.9464 7.89863 17.9298 7.89863 15.8271C7.89863 13.7243 8.73394 11.7077 10.2208 10.2209V10.2209ZM25.5137 9.07945C25.6961 8.90735 25.8422 8.7004 25.9432 8.47084C26.0442 8.24128 26.0982 7.99379 26.1018 7.74301C26.1055 7.49224 26.0588 7.24328 25.9645 7.01087C25.8702 6.77847 25.7303 6.56734 25.5529 6.39C25.3756 6.21265 25.1644 6.07269 24.932 5.97841C24.6996 5.88412 24.4507 5.83742 24.1999 5.84108C23.9491 5.84473 23.7016 5.89867 23.4721 5.99969C23.2425 6.10071 23.0356 6.24677 22.8635 6.42921C22.5288 6.78402 22.3455 7.2553 22.3526 7.74301C22.3597 8.23073 22.5566 8.69647 22.9015 9.04137C23.2464 9.38628 23.7122 9.58318 24.1999 9.59029C24.6876 9.5974 25.1589 9.41416 25.5137 9.07945V9.07945Z" fill="#F8F8F8"></path>
  </symbol>
  <symbol fill="none" xmlns="http://www.w3.org/2000/svg" viewBox="0 0 33 27" id="twitter">
    <path d="M32.4612 3.92278C31.2903 4.44162 30.0325 4.79218 28.7102 4.95063C30.0746 4.13423 31.0953 2.84932 31.582 1.33564C30.3001 2.09704 28.8972 2.63299 27.4341 2.92018C26.4503 1.86971 25.1472 1.17344 23.7271 0.939468C22.3069 0.7055 20.8493 0.946924 19.5805 1.62626C18.3116 2.30559 17.3026 3.38483 16.71 4.69641C16.1173 6.00799 15.9743 7.47853 16.3031 8.87973C13.7057 8.74931 11.1647 8.07421 8.84514 6.89822C6.52554 5.72223 4.47913 4.07165 2.83872 2.05359C2.27782 3.02114 1.9553 4.14294 1.9553 5.33765C1.95468 6.41317 2.21953 7.47221 2.72637 8.42082C3.23321 9.36942 3.96635 10.1783 4.86076 10.7756C3.82348 10.7426 2.80909 10.4623 1.90202 9.95806V10.0422C1.90191 11.5506 2.4237 13.0127 3.37884 14.1802C4.33398 15.3478 5.66365 16.1489 7.14222 16.4477C6.17997 16.7081 5.17113 16.7464 4.19189 16.5598C4.60905 17.8578 5.42165 18.9928 6.51593 19.8059C7.6102 20.6191 8.93137 21.0697 10.2945 21.0947C7.98053 22.9112 5.12282 23.8965 2.18106 23.8922C1.65996 23.8923 1.1393 23.8619 0.621765 23.801C3.60782 25.721 7.0838 26.7399 10.6338 26.7359C22.6511 26.7359 29.2206 16.7828 29.2206 8.15056C29.2206 7.87011 29.2136 7.58686 29.201 7.30641C30.4788 6.38229 31.5819 5.23795 32.4584 3.92699L32.4612 3.92278Z" fill="#F8F8F8"></path>
  </symbol>
</svg>