<svg width="69" height="53" viewBox="0 0 69 53" fill="none" xmlns="http://www.w3.org/2000/svg">
<g filter="url(#filter0_d_89_304)">
<path d="M58.875 42.8438C58.875 43.3825 58.661 43.8992 58.28 44.2801C57.8991 44.661 57.3825 44.875 56.8437 44.875H20.2812C19.7425 44.875 19.2259 44.661 18.8449 44.2801C18.464 43.8992 18.25 43.3825 18.25 42.8438C18.25 42.305 18.464 41.7884 18.8449 41.4075C19.2259 41.0265 19.7425 40.8125 20.2812 40.8125H56.8437C57.3825 40.8125 57.8991 41.0265 58.28 41.4075C58.661 41.7884 58.875 42.305 58.875 42.8438ZM64.9687 22.5313V28.625C64.9687 29.1637 64.7547 29.6804 64.3738 30.0613C63.9929 30.4423 63.4762 30.6563 62.9375 30.6563H18.1992C16.0138 30.6638 13.8848 29.9627 12.1315 28.658C10.3782 27.3534 9.09508 25.5155 8.4746 23.4199L4.89452 11.5117C4.71672 10.9023 4.6815 10.2602 4.79157 9.63501C4.90164 9.00982 5.15405 8.41832 5.52928 7.90628C5.91299 7.40121 6.4083 6.99173 6.9765 6.70983C7.54469 6.42794 8.17039 6.28126 8.80467 6.28128H13.1719C13.4684 6.28189 13.7611 6.34825 14.0289 6.47557C14.2968 6.60289 14.533 6.78802 14.7207 7.01761L19.1894 12.375H23.5566L21.2715 5.54495C21.0658 4.93324 21.0087 4.28133 21.1051 3.64321C21.2015 3.00508 21.4486 2.3991 21.8258 1.87546C22.203 1.35181 22.6996 0.925575 23.2743 0.632043C23.8491 0.338511 24.4855 0.186133 25.1308 0.187528H29.4219C29.7039 0.186043 29.9832 0.244073 30.2413 0.357826C30.4994 0.471579 30.7307 0.638497 30.9199 0.847684L41.4824 12.375H54.8125C57.5061 12.375 60.0894 13.4451 61.994 15.3497C63.8987 17.2544 64.9687 19.8377 64.9687 22.5313ZM60.9062 22.5313C60.8996 20.9172 60.2554 19.3711 59.114 18.2297C57.9727 17.0884 56.4266 16.4442 54.8125 16.4375H40.5937C40.3117 16.439 40.0324 16.381 39.7743 16.2672C39.5162 16.1535 39.2849 15.9866 39.0957 15.7774L28.5332 4.25003H25.1308L28.3047 13.7715C28.4041 14.0769 28.4306 14.4013 28.3821 14.7187C28.3336 15.0362 28.2114 15.3379 28.0254 15.5996C27.8378 15.8616 27.5899 16.0745 27.3026 16.2203C27.0153 16.3662 26.6971 16.4407 26.375 16.4375H18.25C17.9534 16.4369 17.6607 16.3706 17.3929 16.2432C17.1251 16.1159 16.8888 15.9308 16.7012 15.7012L12.2324 10.3438H8.77928L12.3594 22.252C12.7326 23.5097 13.5034 24.6126 14.5563 25.3953C15.6091 26.1781 16.8873 26.5986 18.1992 26.5938H60.9062V22.5313Z" fill="white"/>
</g>
<defs>
<filter id="filter0_d_89_304" x="0.728882" y="0.1875" width="68.2399" height="52.6875" filterUnits="userSpaceOnUse" color-interpolation-filters="sRGB">
<feFlood flood-opacity="0" result="BackgroundImageFix"/>
<feColorMatrix in="SourceAlpha" type="matrix" values="0 0 0 0 0 0 0 0 0 0 0 0 0 0 0 0 0 0 127 0" result="hardAlpha"/>
<feOffset dy="4"/>
<feGaussianBlur stdDeviation="2"/>
<feComposite in2="hardAlpha" operator="out"/>
<feColorMatrix type="matrix" values="0 0 0 0 0 0 0 0 0 0 0 0 0 0 0 0 0 0 0.25 0"/>
<feBlend mode="normal" in2="BackgroundImageFix" result="effect1_dropShadow_89_304"/>
<feBlend mode="normal" in="SourceGraphic" in2="effect1_dropShadow_89_304" result="shape"/>
</filter>
</defs>
</svg>
