<svg width="50" height="50" viewBox="0 0 50 50" fill="none" xmlns="http://www.w3.org/2000/svg">
<path d="M10.4167 42.7083C8.4828 42.7083 6.62813 41.9401 5.26068 40.5727C3.89323 39.2052 3.125 37.3505 3.125 35.4167C3.125 33.4828 3.89323 31.6281 5.26068 30.2607C6.62813 28.8932 8.4828 28.125 10.4167 28.125C12.3505 28.125 14.2052 28.8932 15.5727 30.2607C16.9401 31.6281 17.7083 33.4828 17.7083 35.4167C17.7083 37.3505 16.9401 39.2052 15.5727 40.5727C14.2052 41.9401 12.3505 42.7083 10.4167 42.7083ZM10.4167 25C7.65399 25 5.00447 26.0975 3.05097 28.051C1.09747 30.0045 0 32.654 0 35.4167C0 38.1793 1.09747 40.8289 3.05097 42.7824C5.00447 44.7359 7.65399 45.8333 10.4167 45.8333C13.1793 45.8333 15.8289 44.7359 17.7824 42.7824C19.7359 40.8289 20.8333 38.1793 20.8333 35.4167C20.8333 32.654 19.7359 30.0045 17.7824 28.051C15.8289 26.0975 13.1793 25 10.4167 25ZM30.8333 20.8333H39.5833V17.0833H32.9167L28.875 10.2708C28.2708 9.22917 27.0833 8.54167 25.8333 8.54167C24.8542 8.54167 23.9583 8.9375 23.3333 9.58333L15.625 17.2708C14.9792 17.9167 14.5833 18.75 14.5833 19.7917C14.5833 21.1042 15.2708 22.2083 16.3542 22.8542L23.3333 27.0833V37.5H27.0833V23.9583L22.3958 20.5208L27.2292 15.625L30.8333 20.8333ZM39.5833 42.7083C37.6495 42.7083 35.7948 41.9401 34.4273 40.5727C33.0599 39.2052 32.2917 37.3505 32.2917 35.4167C32.2917 33.4828 33.0599 31.6281 34.4273 30.2607C35.7948 28.8932 37.6495 28.125 39.5833 28.125C41.5172 28.125 43.3719 28.8932 44.7393 30.2607C46.1068 31.6281 46.875 33.4828 46.875 35.4167C46.875 37.3505 46.1068 39.2052 44.7393 40.5727C43.3719 41.9401 41.5172 42.7083 39.5833 42.7083ZM39.5833 25C36.8207 25 34.1711 26.0975 32.2176 28.051C30.2641 30.0045 29.1667 32.654 29.1667 35.4167C29.1667 38.1793 30.2641 40.8289 32.2176 42.7824C34.1711 44.7359 36.8207 45.8333 39.5833 45.8333C40.9513 45.8333 42.3058 45.5639 43.5696 45.0404C44.8334 44.5169 45.9818 43.7496 46.949 42.7824C47.9163 41.8151 48.6836 40.6668 49.2071 39.403C49.7306 38.1391 50 36.7846 50 35.4167C50 34.0487 49.7306 32.6942 49.2071 31.4304C48.6836 30.1666 47.9163 29.0182 46.949 28.051C45.9818 27.0837 44.8334 26.3164 43.5696 25.7929C42.3058 25.2694 40.9513 25 39.5833 25ZM33.3333 10C35.4167 10 37.0833 8.33333 37.0833 6.25C37.0833 4.16667 35.4167 2.5 33.3333 2.5C31.25 2.5 29.5833 4.16667 29.5833 6.25C29.5833 8.33333 31.25 10 33.3333 10Z" fill="white"/>
</svg>
