<svg width="54" height="54" viewBox="0 0 54 54" fill="none" xmlns="http://www.w3.org/2000/svg">
<path d="M14.6042 29.9167C15.5711 29.9167 16.4984 29.5326 17.1822 28.8488C17.8659 28.1651 18.25 27.2378 18.25 26.2708C18.25 25.3039 17.8659 24.3766 17.1822 23.6928C16.4984 23.0091 15.5711 22.625 14.6042 22.625C13.6372 22.625 12.7099 23.0091 12.0262 23.6928C11.3424 24.3766 10.9583 25.3039 10.9583 26.2708C10.9583 27.2378 11.3424 28.1651 12.0262 28.8488C12.7099 29.5326 13.6372 29.9167 14.6042 29.9167ZM30.6458 26.2708C30.6458 27.2378 30.2617 28.1651 29.578 28.8488C28.8943 29.5326 27.9669 29.9167 27 29.9167C26.0331 29.9167 25.1057 29.5326 24.422 28.8488C23.7383 28.1651 23.3542 27.2378 23.3542 26.2708C23.3542 25.3039 23.7383 24.3766 24.422 23.6928C25.1057 23.0091 26.0331 22.625 27 22.625C27.9669 22.625 28.8943 23.0091 29.578 23.6928C30.2617 24.3766 30.6458 25.3039 30.6458 26.2708ZM39.3958 29.9167C40.3628 29.9167 41.2901 29.5326 41.9738 28.8488C42.6576 28.1651 43.0417 27.2378 43.0417 26.2708C43.0417 25.3039 42.6576 24.3766 41.9738 23.6928C41.2901 23.0091 40.3628 22.625 39.3958 22.625C38.4289 22.625 37.5016 23.0091 36.8178 23.6928C36.1341 24.3766 35.75 25.3039 35.75 26.2708C35.75 27.2378 36.1341 28.1651 36.8178 28.8488C37.5016 29.5326 38.4289 29.9167 39.3958 29.9167ZM18.25 37.9375C18.25 38.9044 17.8659 39.8318 17.1822 40.5155C16.4984 41.1992 15.5711 41.5833 14.6042 41.5833C13.6372 41.5833 12.7099 41.1992 12.0262 40.5155C11.3424 39.8318 10.9583 38.9044 10.9583 37.9375C10.9583 36.9706 11.3424 36.0432 12.0262 35.3595C12.7099 34.6758 13.6372 34.2917 14.6042 34.2917C15.5711 34.2917 16.4984 34.6758 17.1822 35.3595C17.8659 36.0432 18.25 36.9706 18.25 37.9375ZM27 41.5833C27.9669 41.5833 28.8943 41.1992 29.578 40.5155C30.2617 39.8318 30.6458 38.9044 30.6458 37.9375C30.6458 36.9706 30.2617 36.0432 29.578 35.3595C28.8943 34.6758 27.9669 34.2917 27 34.2917C26.0331 34.2917 25.1057 34.6758 24.422 35.3595C23.7383 36.0432 23.3542 36.9706 23.3542 37.9375C23.3542 38.9044 23.7383 39.8318 24.422 40.5155C25.1057 41.1992 26.0331 41.5833 27 41.5833ZM0.75 9.86458C0.75 7.44725 1.71028 5.12892 3.4196 3.4196C5.12892 1.71028 7.44725 0.75 9.86458 0.75H44.1354C46.5528 0.75 48.8711 1.71028 50.5804 3.4196C52.2897 5.12892 53.25 7.44725 53.25 9.86458V44.1354C53.25 46.5528 52.2897 48.8711 50.5804 50.5804C48.8711 52.2897 46.5528 53.25 44.1354 53.25H9.86458C7.44725 53.25 5.12892 52.2897 3.4196 50.5804C1.71028 48.8711 0.75 46.5528 0.75 44.1354V9.86458ZM9.86458 4.39583C8.41418 4.39583 7.02318 4.972 5.99759 5.99759C4.972 7.02318 4.39583 8.41418 4.39583 9.86458V12.4167H49.6042V9.86458C49.6042 8.41418 49.028 7.02318 48.0024 5.99759C46.9768 4.972 45.5858 4.39583 44.1354 4.39583H9.86458ZM4.39583 44.1354C4.39583 45.5858 4.972 46.9768 5.99759 48.0024C7.02318 49.028 8.41418 49.6042 9.86458 49.6042H44.1354C45.5858 49.6042 46.9768 49.028 48.0024 48.0024C49.028 46.9768 49.6042 45.5858 49.6042 44.1354V16.0625H4.39583V44.1354Z" fill="white"/>
</svg>
